<?xml version="1.0" encoding="UTF-8" standalone="no"?>
<svg
   viewBox="0 0 96 96"
   version="1.1"
   id="svg2"
   sodipodi:docname="Eye_addition.svg"
   inkscape:version="1.3 (0e150ed6c4, 2023-07-21)"
   xmlns:inkscape="http://www.inkscape.org/namespaces/inkscape"
   xmlns:sodipodi="http://sodipodi.sourceforge.net/DTD/sodipodi-0.dtd"
   xmlns="http://www.w3.org/2000/svg"
   xmlns:svg="http://www.w3.org/2000/svg">
  <defs
     id="defs2" />
  <sodipodi:namedview
     id="namedview2"
     pagecolor="#ffffff"
     bordercolor="#000000"
     borderopacity="0.25"
     inkscape:showpageshadow="2"
     inkscape:pageopacity="0.0"
     inkscape:pagecheckerboard="0"
     inkscape:deskcolor="#d1d1d1"
     inkscape:zoom="11.84375"
     inkscape:cx="47.957784"
     inkscape:cy="54.754617"
     inkscape:window-width="3440"
     inkscape:window-height="1351"
     inkscape:window-x="-9"
     inkscape:window-y="-9"
     inkscape:window-maximized="1"
     inkscape:current-layer="svg2" />
  <title
     id="title1" />
  <g
     id="g2"
     transform="matrix(0.63882948,0,0,0.62827287,1.7603986e-5,43.224388)">
    <path
       d="M 94.9936,44.6718 C 83.6788,27.7025 70.155,11.9989 48,11.9989 c -22.155,0 -35.6788,15.7036 -46.9936,32.6729 a 6.0063,6.0063 0 0 0 0,6.6564 C 12.3212,68.2975 25.845,84.0011 48,84.0011 c 22.155,0 35.6788,-15.7036 46.9936,-32.6729 a 6.0063,6.0063 0 0 0 0,-6.6564 z M 48,72.0007 C 35.2672,72.0007 25.3294,65.21 13.2646,48 25.3294,30.7905 35.2672,23.9993 48,23.9993 60.7328,23.9993 70.6706,30.7905 82.7354,48 70.6706,65.21 60.7328,72.0007 48,72.0007 Z"
       id="path1" />
    <path
       d="M 48,36 A 12,12 0 1 0 60,48 12.0161,12.0161 0 0 0 48,36 Z"
       id="path2" />
  </g>
</svg>
