<?xml version="1.0" encoding="UTF-8" standalone="no"?>
<svg
   viewBox="0 0 96 96"
   version="1.1"
   id="svg2"
   sodipodi:docname="Plus_addition.svg"
   inkscape:version="1.3 (0e150ed6c4, 2023-07-21)"
   xmlns:inkscape="http://www.inkscape.org/namespaces/inkscape"
   xmlns:sodipodi="http://sodipodi.sourceforge.net/DTD/sodipodi-0.dtd"
   xmlns="http://www.w3.org/2000/svg"
   xmlns:svg="http://www.w3.org/2000/svg">
  <defs
     id="defs2" />
  <sodipodi:namedview
     id="namedview2"
     pagecolor="#ffffff"
     bordercolor="#000000"
     borderopacity="0.25"
     inkscape:showpageshadow="2"
     inkscape:pageopacity="0.0"
     inkscape:pagecheckerboard="0"
     inkscape:deskcolor="#d1d1d1"
     inkscape:zoom="11.84375"
     inkscape:cx="47.957784"
     inkscape:cy="48"
     inkscape:window-width="3440"
     inkscape:window-height="1351"
     inkscape:window-x="-9"
     inkscape:window-y="-9"
     inkscape:window-maximized="1"
     inkscape:current-layer="svg2" />
  <title
     id="title1" />
  <g
     id="g2"
     transform="matrix(0.55496922,0,0,0.55496922,0,42.722955)">
    <path
       d="M 66,42 H 54 V 30 A 6,6 0 0 0 42,30 V 42 H 30 a 6,6 0 0 0 0,12 h 12 v 12 a 6,6 0 0 0 12,0 V 54 h 12 a 6,6 0 0 0 0,-12 z"
       id="path1" />
    <path
       d="M 48,0 A 48,48 0 1 0 96,48 48.0512,48.0512 0 0 0 48,0 Z m 0,84 A 36,36 0 1 1 84,48 36.0393,36.0393 0 0 1 48,84 Z"
       id="path2" />
  </g>
</svg>
