<?xml version="1.0" encoding="UTF-8" standalone="no"?>
<svg
   viewBox="0 0 96 96"
   version="1.1"
   id="svg3"
   sodipodi:docname="Report.svg"
   inkscape:version="1.3 (0e150ed6c4, 2023-07-21)"
   xmlns:inkscape="http://www.inkscape.org/namespaces/inkscape"
   xmlns:sodipodi="http://sodipodi.sourceforge.net/DTD/sodipodi-0.dtd"
   xmlns="http://www.w3.org/2000/svg"
   xmlns:svg="http://www.w3.org/2000/svg">
  <defs
     id="defs3" />
  <sodipodi:namedview
     id="namedview3"
     pagecolor="#ffffff"
     bordercolor="#000000"
     borderopacity="0.25"
     inkscape:showpageshadow="2"
     inkscape:pageopacity="0.0"
     inkscape:pagecheckerboard="0"
     inkscape:deskcolor="#d1d1d1"
     inkscape:zoom="5.12"
     inkscape:cx="74.902344"
     inkscape:cy="38.183594"
     inkscape:window-width="3187"
     inkscape:window-height="1701"
     inkscape:window-x="1095"
     inkscape:window-y="0"
     inkscape:window-maximized="0"
     inkscape:current-layer="g3" />
  <title
     id="title1" />
  <g
     id="g3"
     transform="matrix(0.90145366,0,0,0.90145366,5.8938831,8.626782)">
    <path
       d="M 84,0 H 12 A 5.9966,5.9966 0 0 0 6,6 v 84 a 5.9966,5.9966 0 0 0 6,6 h 72 a 5.9966,5.9966 0 0 0 6,-6 V 6 A 5.9966,5.9966 0 0 0 84,0 Z M 78,84 H 18 V 12 h 60 z"
       id="path1" />
    <path
       d="m 36.95643,4.7855047 h 20.96994 a 5.242485,5.242485 0 0 0 0,-10.48497 H 36.95643 a 5.242485,5.242485 0 0 0 0,10.48497 z"
       id="path2-3"
       style="stroke-width:0.873748"
       inkscape:label="path4" />
    <path
       d="M 68.106439,21.689083 C 65.186592,25.499752 54.314105,39.636174 54.314105,39.636174 L 41.760837,23.252999 c -1.488367,-1.943409 -3.902263,-1.943409 -5.390631,0 l -15.248583,19.90081 c -3.573793,4.690158 1.796892,11.699395 5.39063,7.035264 L 39.065521,33.805901 51.618792,50.189073 c 1.488365,1.943413 3.902261,1.943413 5.390625,0 0,0 11.340275,-14.746926 16.48765,-21.464722 3.549322,-4.632193 -1.944899,-11.532262 -5.390628,-7.035268 z"
       id="path1-8"
       sodipodi:nodetypes="sccccccccss"
       style="stroke-width:0.725839" />
    <g
       id="g2"
       transform="matrix(0.46169765,0,0,0.44752117,59.992086,40.131299)"
       style="display:none;stroke-width:2.41975;stroke-dasharray:none">
      <ellipse
         style="display:inline;fill:#ffffff;fill-opacity:1;stroke:#ffffff;stroke-width:4.36949;stroke-linecap:round;stroke-dasharray:none;stroke-opacity:1"
         id="path2"
         cx="-20.218338"
         cy="43.293011"
         rx="46.734646"
         ry="48.515533" />
      <path
         d="m 15.601537,62.135734 a 13.2727,13.2727 0 0 0 11.9,-13.4707 13.2723,13.2723 0 0 0 -11.8945,-13.4707 1.5762,1.5762 0 0 1 -1.0547,-2.5313 13.2639,13.2639 0 0 0 -1.1133,-17.9355 13.2635,13.2635 0 0 0 -17.9354995,-1.1133 1.5521,1.5521 0 0 1 -1.57,0.211 1.5018,1.5018 0 0 1 -0.9609,-1.26 13.2727,13.2727 0 0 0 -13.4711005,-11.9002004 13.2723,13.2723 0 0 0 -13.4707,11.8945004 1.503,1.503 0 0 1 -0.9609,1.2657 1.4744,1.4744 0 0 1 -1.57,-0.211 13.2638,13.2638 0 0 0 -17.9355,1.1133 13.2639,13.2639 0 0 0 -1.1137,17.9355 1.5769,1.5769 0 0 1 -1.0492,2.5313 13.2727,13.2727 0 0 0 -11.899999,13.4707 13.2723,13.2723 0 0 0 11.894499,13.4707 1.5762,1.5762 0 0 1 1.0547,2.5313 13.2639,13.2639 0 0 0 1.1133,17.9355 13.2635,13.2635 0 0 0 17.9355,1.1133 1.5769,1.5769 0 0 1 2.5313,1.0492 13.2727,13.2727 0 0 0 13.4707,11.9 13.2723,13.2723 0 0 0 13.4707005,-11.8945 1.503,1.503 0 0 1 0.9609,-1.2657 1.5479,1.5479 0 0 1 1.57,0.211 13.5737,13.5737 0 0 0 19.0491995,-19.0488 1.5769,1.5769 0 0 1 1.0492,-2.5313 z m -1.477,-11.9062 a 13.5739,13.5739 0 0 0 -9.0409995,21.8085 1.574,1.574 0 0 1 -2.209,2.209 13.5739,13.5739 0 0 0 -21.8085005,9.041 1.5773,1.5773 0 0 1 -3.129,0 13.4241,13.4241 0 0 0 -8.2734,-10.8691 13.6214,13.6214 0 0 0 -5.2383,-1.0547 13.471,13.471 0 0 0 -8.2968,2.8828 1.3675,1.3675 0 0 1 -2.08,-0.1289 1.3767,1.3767 0 0 1 -0.1289,-2.08 13.5739,13.5739 0 0 0 -9.041,-21.8085 1.5773,1.5773 0 0 1 0,-3.129 13.5739,13.5739 0 0 0 9.0409,-21.8086 1.3767,1.3767 0 0 1 0.1289,-2.08 1.3772,1.3772 0 0 1 2.08,-0.1289 13.5739,13.5739 0 0 0 21.8085,-9.041 1.5773,1.5773 0 0 1 3.129,0 13.5739,13.5739 0 0 0 21.8086005,9.0409 1.376,1.376 0 0 1 2.08,0.1289 1.3767,1.3767 0 0 1 0.1289,2.08 13.5739,13.5739 0 0 0 9.0409995,21.8085 1.5773,1.5773 0 0 1 0,3.129 z"
         id="path1-6"
         style="display:inline;stroke-width:10.3704;stroke-dasharray:none" />
      <path
         d="m -21.82853,34.448255 a 12,12 0 1 0 12.0000005,12 12.0157,12.0157 0 0 0 -12.0000005,-12 z"
         id="path2-39"
         style="display:inline;stroke-width:2.41975;stroke-dasharray:none" />
    </g>
    <path
       d="m 30.105443,73.083105 h 34.38603 a 8.5965073,6.6559165 0 0 0 0,-13.311833 h -34.38603 a 8.5965073,6.6559165 0 0 0 0,13.311833 z"
       id="path3"
       style="stroke-width:1.26071" />
  </g>
</svg>
